<svg version="1.1" xmlns="http://www.w3.org/2000/svg" xmlns:xlink="http://www.w3.org/1999/xlink" width="54.42051" height="54.85428" viewBox="0,0,54.42051,54.85428"><g transform="translate(-211.63204,-156.33456)"><g data-paper-data="{&quot;isPaintingLayer&quot;:true}" fill-rule="nonzero" stroke-linejoin="miter" stroke-miterlimit="10" stroke-dasharray="" stroke-dashoffset="0" style="mix-blend-mode: normal"><path d="M214.28814,184.52917c0,-13.9883 11.03043,-25.32805 24.63715,-25.32805c13.60673,0 24.63715,11.33975 24.63715,25.32805c0,13.9883 -11.03043,25.32805 -24.63715,25.32805c-13.60673,0 -24.63715,-11.33975 -24.63715,-25.32805z" fill="#ffffff" stroke="none" stroke-width="0" stroke-linecap="butt"/><path d="M213.55255,184.18884c0,-14.08326 11.41674,-25.5 25.5,-25.5c14.08326,0 25.5,11.41674 25.5,25.5c0,14.08326 -11.41674,25.5 -25.5,25.5c-14.08326,0 -25.5,-11.41674 -25.5,-25.5z" fill="none" stroke="#393939" stroke-width="3" stroke-linecap="butt"/><path d="M220.8086,165.97171l37.61515,32.85568" fill="none" stroke="#393939" stroke-width="3" stroke-linecap="round"/><path d="M220.19447,201.13036l34.85159,-37.76868" fill="none" stroke="#393939" stroke-width="3" stroke-linecap="round"/><path d="M236.62231,157.83456l4.45241,51.43296" fill="none" stroke="#393939" stroke-width="3" stroke-linecap="round"/><path d="M213.13204,182.55308l49.74411,-1.99591" fill="none" stroke="#393939" stroke-width="3" stroke-linecap="round"/></g></g></svg>