<svg version="1.1" xmlns="http://www.w3.org/2000/svg" xmlns:xlink="http://www.w3.org/1999/xlink" width="38.22737" height="56.60618" viewBox="0,0,38.22737,56.60618"><g transform="translate(-221.14882,-151.69691)"><g data-paper-data="{&quot;isPaintingLayer&quot;:true}" stroke-linejoin="miter" stroke-miterlimit="10" stroke-dasharray="" stroke-dashoffset="0" style="mix-blend-mode: normal"><path d="M235.10734,190.65923c-0.20106,-0.37667 0.17561,-0.57772 0.17561,-0.57772l0.52657,-0.22998c0.11657,0.00773 0.24373,0.07235 0.34971,0.02318c0.11763,-0.05456 0.14198,-0.22468 0.2474,-0.30018c0.34638,-0.24811 0.74582,-0.43282 1.04474,-0.73643c0.52897,-0.15818 1.21925,-0.30261 1.71605,-0.57031c0.18069,-0.09737 0.32165,-0.2591 0.50307,-0.35511c0.30603,-0.16196 0.68893,-0.15825 0.97892,-0.34744c0.13929,-0.09088 0.19958,-0.28081 0.34622,-0.35927c0.56562,-0.30268 0.6947,-0.0351 1.09177,-0.472c0.2735,-0.30093 0.37309,-0.84873 0.71027,-1.09114c0.37404,-0.26891 0.8616,-0.33581 1.31089,-0.4376c0.15169,-0.03437 0.33021,0.04123 0.46519,-0.03602c0.05789,-0.03314 -0.06505,-0.1169 -0.08971,-0.17888c-0.04605,-0.11572 -0.05163,-0.25039 -0.12199,-0.35316c-0.28133,-0.41088 -0.78576,-0.74709 -1.05622,-1.16776c-0.16147,-0.25116 -0.24721,-0.56372 -0.46992,-0.7626c-0.7057,-0.66954 -1.72817,-0.94127 -2.57731,-1.39226c-0.48157,-0.25577 -0.91468,-0.61525 -1.42919,-0.79583c-0.24271,-0.08518 -0.51725,-0.07118 -0.75043,-0.17974c-0.13114,-0.06105 -0.17201,-0.2493 -0.30299,-0.31069c-0.22657,-0.10619 -0.65496,0.06501 -0.7303,-0.17359c-0.26428,-0.83691 1.02067,-1.63985 1.57322,-1.84713c0.25796,-0.09677 0.55164,-0.0755 0.80688,-0.17926c0.18207,-0.07401 0.30554,-0.25148 0.47918,-0.34356c0.3059,-0.16221 0.68794,-0.15978 0.97892,-0.34744c0.15372,-0.09914 0.22507,-0.30993 0.39257,-0.38344c0.15639,-0.06864 0.35535,0.05398 0.51217,-0.01366c0.14785,-0.06377 0.18079,-0.29616 0.33234,-0.35056c0.32747,-0.11755 0.69502,-0.0856 1.03371,-0.15998c-0.14167,-0.11952 -0.26591,-0.26226 -0.37769,-0.40909c-0.15421,-0.20257 -0.22041,-0.46066 -0.35966,-0.6738c-0.14396,-0.22034 -0.46576,-0.24557 -0.70325,-0.35901c-0.24186,-0.11553 -0.45509,-0.28341 -0.6863,-0.41902c-0.88394,-0.51843 -1.88389,-0.97137 -2.69835,-1.5951c-0.30354,-0.23245 -0.47225,-0.60435 -0.74611,-0.87113c-0.5041,-0.49105 -1.06807,-0.47405 -1.55536,-0.97511c-0.16509,-0.16976 -0.41427,-0.30281 -0.46959,-0.53306c-0.05974,-0.24866 0.10756,-0.50003 0.16134,-0.75004c0,0 0.12417,-0.40851 0.53268,-0.28434c0.40851,0.12417 0.28434,0.53268 0.28434,0.53268c-0.05093,0.09447 -0.1728,0.17797 -0.1528,0.28342c0.01655,0.08722 0.16236,0.07598 0.23153,0.13163c0.52027,0.41864 1.03041,0.4888 1.57233,0.99165c0.25417,0.23585 0.38732,0.59234 0.66522,0.79971c0.79601,0.59398 1.75417,1.02947 2.60873,1.53424c0.53792,0.31774 1.24875,0.47983 1.63477,0.99587c0.1525,0.20387 0.20706,0.47001 0.35966,0.6738c0.17526,0.23404 1.04604,0.80942 0.95481,1.17664c-0.0744,0.29946 -0.51991,0.33247 -0.77987,0.49871c-0.19126,0.06752 -0.37365,0.16962 -0.57379,0.20255c-0.19365,0.03186 -0.4045,-0.07914 -0.58865,-0.0113c-0.1511,0.05566 -0.18449,0.28679 -0.33234,0.35056c-0.15683,0.06764 -0.35485,-0.0528 -0.51217,0.01366c-0.12844,0.05426 -0.15412,0.24341 -0.27212,0.31767c-0.47672,0.30001 -0.59963,0.14717 -1.05158,0.39009c-0.18849,0.10131 -0.32892,0.28562 -0.52697,0.36666c-0.4703,0.19245 -1.0207,0.21484 -1.4389,0.50351c-0.06209,0.04286 -0.10274,0.11129 -0.14921,0.17237c0.10373,0.08594 0.17014,0.24259 0.29437,0.30081c0.19224,0.0901 0.42424,0.05471 0.62447,0.12529c0.55716,0.19638 1.03332,0.573 1.555,0.85021c0.9335,0.49604 1.96981,0.80227 2.76082,1.5235c0.13853,0.13657 0.3091,0.24692 0.41557,0.40972c0.09854,0.15066 0.08841,0.35531 0.18438,0.50762c0.39808,0.63176 1.20245,1.00769 1.303,1.82986c0.03431,0.2805 0.11459,0.62517 -0.0624,0.84548c-0.40348,0.50221 -1.46434,0.31642 -1.95258,0.65089c-0.31941,0.21881 -0.33058,0.71682 -0.60091,0.99399c-0.32874,0.33708 -0.85546,0.39486 -1.27108,0.6161c-0.13747,0.07318 -0.18634,0.25941 -0.31847,0.34184c-0.3172,0.19789 -0.72245,0.21275 -1.05158,0.39009c-0.73224,0.39456 -1.35116,0.693 -2.17422,0.9002c-0.26514,0.29275 -0.64353,0.45814 -0.96754,0.68401c-0.15825,0.11031 -0.23903,0.32723 -0.41729,0.40093c-0.2084,0.08616 -0.44976,0.03367 -0.67465,0.0505l-0.14722,0.12968c0,0 -0.37667,0.20106 -0.57772,-0.17561z" data-paper-data="{&quot;index&quot;:null}" fill="#000000" fill-rule="nonzero" stroke="none" stroke-width="0.5" stroke-linecap="butt"/><g fill-rule="evenodd"><g stroke-linecap="butt"><path d="M242.95648,156.76474c0.92962,-1.13457 2.49406,-1.50603 3.8287,-0.90914l1.37882,0.6166l0.17512,3.99413c0.28913,6.59452 -2.01798,13.03497 -6.41805,17.91597l-0.19478,0.21589l-9.91915,-14.08648c0.4334,-0.3812 0.76656,-0.8781 0.95262,-1.44938l0.39536,-1.21388c0.42272,-1.29788 1.59743,-2.19589 2.95046,-2.25521l3.2569,-0.14279c0.92019,-0.04034 1.7803,-0.47191 2.36706,-1.18824l1.22694,-1.49748" fill="#00b27b" stroke="none" stroke-width="1"/><path d="M244.46412,151.70029c1.92424,-0.08436 3.55303,1.42138 3.63816,3.36303l0.06177,1.40889l-1.37882,-0.6166c-1.33463,-0.5969 -2.89909,-0.22543 -3.8287,0.90914l-1.22694,1.49748c-0.58689,0.71634 -1.44687,1.14789 -2.36706,1.18824l-3.25708,0.1428c-1.35286,0.05932 -2.52757,0.95732 -2.95042,2.25521l-0.39536,1.21388c-0.18594,0.57128 -0.51926,1.06818 -0.95249,1.44938l-2.15013,-3.05365c-1.09418,-1.55392 0.24906,-3.65836 2.10284,-3.29494l1.10317,0.2163c0.9109,0.17861 1.80959,-0.35909 2.09094,-1.25106c0.33087,-1.04856 1.49196,-1.57318 2.48843,-1.12413l0.83198,0.37486c0.91384,0.41202 1.98535,0.00712 2.40536,-0.90877l0.80565,-1.75631c0.54158,-1.18051 1.69056,-1.95725 2.97871,-2.01373" fill="#19242d" stroke="none" stroke-width="1"/><path d="M230.24841,165.26809c0.60449,-0.11053 1.15242,-0.38921 1.59337,-0.78884l10.0364,14.11234l-13.01465,0.64222c-0.04751,-1.08373 -0.95669,-1.92403 -2.03065,-1.87694l-1.12208,0.0492l1.08534,-1.57529c1.03437,-1.50136 1.43512,-3.35629 1.11384,-5.15687l-0.28414,-1.59175c-0.31842,-1.7844 0.85494,-3.49095 2.62257,-3.81405" fill="#f2f253" stroke="none" stroke-width="1"/><path d="M225.05774,165.26496c-0.14275,-3.25594 3.99974,-4.70078 5.88355,-2.05199l0.90049,1.26627c-0.44094,0.39963 -0.98874,0.67835 -1.59337,0.78888c-1.7675,0.3231 -2.94099,2.02961 -2.62257,3.814l0.28409,1.59176c0.32127,1.80058 -0.07943,3.65555 -1.11384,5.15687l-1.08534,1.57534l-1.50571,0.06602c-1.59014,0.06972 -2.59994,-1.69744 -1.74306,-3.05029l0.20301,-0.32043c0.57369,-0.90575 0.15109,-2.11494 -0.85898,-2.45822c-0.51763,-0.17591 -0.78759,-0.75037 -0.59492,-1.26573l0.01104,-0.02934c0.1801,-0.48192 0.69299,-0.74739 1.18637,-0.61405l0.72074,0.19481c1.06968,0.28916 2.10874,-0.5528 2.05981,-1.66873l-0.13132,-2.99518" fill="#19242d" stroke="none" stroke-width="1"/><path d="M242.31148,168.84899c-1.84391,0.08084 -3.4048,-1.36203 -3.48638,-3.2227c-0.08157,-1.86054 1.34705,-3.43449 3.19096,-3.51533c1.84387,-0.08084 3.40476,1.36204 3.48633,3.22257c0.08158,1.86067 -1.34704,3.43462 -3.19091,3.51546" fill="#19242d" stroke="none" stroke-width="1"/><path d="M242.31148,168.84899c-1.84391,0.08084 -3.4048,-1.36203 -3.48638,-3.2227c-0.08157,-1.86054 1.34705,-3.43449 3.19096,-3.51533c1.84387,-0.08084 3.40476,1.36204 3.48633,3.22257c0.08158,1.86067 -1.34704,3.43462 -3.19091,3.51546z" fill="none" stroke="#f2f253" stroke-width="3.5"/><path d="M232.64417,175.22218c-1.10463,0.04843 -2.03952,-0.81588 -2.08838,-1.93041c-0.04887,-1.11471 0.80679,-2.05739 1.91142,-2.10582c1.10445,-0.04842 2.03951,0.81575 2.08838,1.93046c0.04886,1.11453 -0.80697,2.05736 -1.91142,2.10578" fill="#19242d" stroke="none" stroke-width="1"/></g><g stroke-linecap="butt"><path d="M234.2918,198.00574c-0.23539,-0.55281 -0.61076,-1.01864 -1.07568,-1.36045l8.64821,-14.90067l0.2128,0.19802c4.81041,4.47718 7.67232,10.691 7.96145,17.28565l0.17512,3.99413l-1.31961,0.73491c-1.27723,0.71145 -2.86824,0.47812 -3.89353,-0.57057l-1.35334,-1.38452c-0.64715,-0.66206 -1.54159,-1.01669 -2.46196,-0.97634l-3.2569,0.14279c-1.35303,0.05932 -2.60183,-0.73243 -3.13652,-1.98846l-0.50004,-1.17449" fill="#00b27b" stroke="none" stroke-width="1"/><path d="M233.72457,202.97362c-1.81502,0.5244 -3.33716,-1.45453 -2.38331,-3.09825l1.87481,-3.23012c0.46493,0.34194 0.84047,0.80764 1.07568,1.36045l0.50004,1.17449c0.53469,1.25604 1.78349,2.04779 3.13652,1.98846l3.25708,-0.1428c0.92019,-0.04034 1.81464,0.31442 2.46179,0.97652l1.35333,1.38435c1.02547,1.04868 2.6163,1.28202 3.89353,0.57057l1.31961,-0.73491l0.06177,1.40889c0.08514,1.94178 -1.40567,3.58417 -3.32978,3.66853c-1.28828,0.05648 -2.5008,-0.61672 -3.14348,-1.74531l-0.95631,-1.67905c-0.49851,-0.87549 -1.60149,-1.18517 -2.47562,-0.69477l-0.79598,0.44637c-0.95334,0.53458 -2.15602,0.11359 -2.57731,-0.9023c-0.35827,-0.86367 -1.30058,-1.32078 -2.19235,-1.06309l-1.08,0.31197" fill="#19242d" stroke="none" stroke-width="1"/><path d="M228.79439,190.84776c0.16246,-1.82162 -0.39891,-3.63436 -1.56072,-5.03957l-1.21921,-1.47412l1.12226,-0.0492c1.07378,-0.04708 1.90596,-0.96403 1.85845,-2.04759l13.02105,-0.49932l-8.76292,14.93661c-0.47423,-0.35955 -1.04432,-0.58921 -1.65629,-0.6464c-1.78898,-0.16704 -3.1072,-1.76443 -2.9463,-3.56985l0.14369,-1.61056" fill="#f2f253" stroke="none" stroke-width="1"/><path d="M223.03937,187.5911c-0.97216,-1.27266 -0.12089,-3.12124 1.46942,-3.19097l1.50571,-0.06602l1.21904,1.47413c1.16184,1.40503 1.72335,3.21781 1.56089,5.03956l-0.14369,1.61056c-0.16103,1.80542 1.15714,3.40269 2.9463,3.56985c0.61184,0.0572 1.18206,0.28685 1.65629,0.6464l-0.78622,1.34009c-1.64475,2.80358 -5.8978,1.72683 -6.04056,-1.52911l-0.13132,-2.99514c-0.04893,-1.11611 -1.15769,-1.86389 -2.19796,-1.48223l-0.70093,0.25714c-0.47982,0.17602 -1.01396,-0.04337 -1.23555,-0.50768l-0.01357,-0.0283c-0.23704,-0.49664 -0.01838,-1.09235 0.48186,-1.31307c0.97615,-0.43018 1.2913,-1.67172 0.64055,-2.52379l-0.23027,-0.30144" fill="#19242d" stroke="none" stroke-width="1"/><path d="M243.30042,191.40534c1.84387,-0.08084 3.40476,1.36204 3.48634,3.2227c0.08157,1.86054 -1.34705,3.43449 -3.19092,3.51533c-1.84391,0.08084 -3.4048,-1.36203 -3.48638,-3.22257c-0.08158,-1.86067 1.34704,-3.43462 3.19096,-3.51546" fill="#19242d" stroke="none" stroke-width="1"/><path d="M246.78676,194.62805c0.08157,1.86054 -1.34705,3.43449 -3.19092,3.51533c-1.84391,0.08084 -3.4048,-1.36203 -3.48638,-3.22257c-0.08158,-1.86067 1.34704,-3.43462 3.19096,-3.51546c1.84387,-0.08084 3.40476,1.36204 3.48634,3.2227z" fill="none" stroke="#f2f253" stroke-width="3.5"/><path d="M233.28322,189.79807c-1.10463,0.04843 -2.03952,-0.81592 -2.08838,-1.93046c-0.04887,-1.11471 0.80679,-2.05739 1.91142,-2.10582c1.10445,-0.04842 2.03951,0.81575 2.08838,1.93046c0.04886,1.11453 -0.80697,2.0574 -1.91142,2.10582" fill="#19242d" stroke="none" stroke-width="1"/></g><g><path d="M258.56333,171.47065l-1.23374,1.89075c-2.29437,3.51606 -6.00056,5.84052 -10.14195,6.36029l-2.55665,0.32084" fill="none" stroke="#19242d" stroke-width="1.05" stroke-linecap="round"/><path d="M244.2221,180.06051l2.57496,0.09585c4.17076,0.15521 8.06634,2.14637 10.65963,5.44815l1.39449,1.77565" fill="none" stroke="#19242d" stroke-width="1.05" stroke-linecap="round"/><path d="M243.16259,180.11098c-0.01792,-0.40885 0.29889,-0.75792 0.70394,-0.77568l3.33151,-0.14606c0.40501,-0.01776 0.75116,0.30225 0.76908,0.71109c0.01792,0.40872 -0.2989,0.75779 -0.70391,0.77555l-3.33151,0.14606c-0.40505,0.01776 -0.7512,-0.30225 -0.76912,-0.71096" fill="#19242d" stroke="none" stroke-width="1" stroke-linecap="butt"/><path d="M241.46222,182.37407c-6.30602,0.27648 -19.05692,-0.14432 -19.10981,-1.3507c-0.05289,-1.20634 12.61225,-2.74164 18.91827,-3.01811c1.99868,-0.08763 3.86462,0.81058 3.91751,2.01691c0.05289,1.20638 -2.03115,2.2776 -3.72597,2.3519" fill="#19242d" stroke="none" stroke-width="1" stroke-linecap="butt"/><path d="M241.19496,182.67979c-2.34932,0.103 -4.30248,-0.92284 -4.36247,-2.29123c-0.06,-1.36857 1.79588,-2.56141 4.1452,-2.66441c2.34936,-0.103 4.30248,0.92284 4.36248,2.29141c0.06,1.36839 -1.79584,2.56123 -4.14521,2.66424" fill="#19242d" stroke="none" stroke-width="1" stroke-linecap="butt"/><path d="M245.82173,179.56107c-0.47875,0.02099 -0.88408,-0.35369 -0.90526,-0.83663c-0.02118,-0.48307 0.34981,-0.89178 0.82856,-0.91277c0.47871,-0.02099 0.88404,0.35369 0.90522,0.83676c0.02117,0.48294 -0.34982,0.89165 -0.82852,0.91264" fill="#fcf6ed" stroke="none" stroke-width="1" stroke-linecap="butt"/><path d="M245.93599,182.16726c-0.47875,0.02099 -0.88408,-0.35369 -0.90526,-0.83658c-0.02118,-0.48307 0.34981,-0.89178 0.82856,-0.91277c0.47871,-0.02099 0.88404,0.35369 0.90522,0.83676c0.02117,0.48289 -0.34982,0.89161 -0.82852,0.9126" fill="#fcf6ed" stroke="none" stroke-width="1" stroke-linecap="butt"/><path d="M245.80501,179.17975c-0.27001,0.01184 -0.4986,-0.19948 -0.51055,-0.47193c-0.01195,-0.2724 0.19728,-0.50292 0.46728,-0.51476c0.26996,-0.01184 0.49856,0.19948 0.5105,0.47189c0.01195,0.27245 -0.19728,0.50296 -0.46724,0.5148" fill="#19242d" stroke="none" stroke-width="1" stroke-linecap="butt"/><path d="M245.91927,181.78595c-0.27001,0.01184 -0.4986,-0.19948 -0.51055,-0.47189c-0.01195,-0.27245 0.19728,-0.50296 0.46728,-0.5148c0.26996,-0.01184 0.49856,0.19948 0.5105,0.47193c0.01195,0.2724 -0.19728,0.50292 -0.46724,0.51476" fill="#19242d" stroke="none" stroke-width="1" stroke-linecap="butt"/></g></g></g></g></svg>